Coordinates
version=1
nRows=24
nColumns=24
inDegrees=yes

Units are S.I. units (second, meters, Newtons, ...)
Angles are in degrees.

endheader
time	pelvis_tilt	pelvis_list	pelvis_rotation	pelvis_tx	pelvis_ty	pelvis_tz	hip_flexion_r	hip_adduction_r	hip_rotation_r	knee_angle_r	ankle_angle_r	subtalar_angle_r	mtp_angle_r	hip_flexion_l	hip_adduction_l	hip_rotation_l	knee_angle_l	ankle_angle_l	subtalar_angle_l	mtp_angle_l	lumbar_extension	lumbar_bending	lumbar_rotation
      4.11000000	     -9.67246630	     -2.24485710	     -3.23289744	     -1.20933606	     -0.00356682	     -0.71058120	      5.57973894	      6.79501141	     -5.07562090	     -7.44898958	      4.49198421	     -8.02663516	      4.90866731	     34.32804549	     -7.82258400	    -15.07524380	    -54.16171619	     -3.58167578	    -13.27247922	      6.15554671	      6.65223348	      4.38749091	      0.89602006
      4.11500000	     -9.75283716	     -2.15742076	     -3.41968209	     -1.20414914	     -0.00387940	     -0.71016182	      5.22539028	      6.71529247	     -5.05768042	     -7.26959912	      4.67680787	     -7.70050606	      5.18066202	     34.63489553	     -7.74748038	    -15.41950250	    -52.70475306	     -3.19587340	    -13.36264909	      5.32782450	      6.65523900	      4.28241619	      1.19226570
      4.12000000	     -9.84257670	     -2.12111997	     -3.45546493	     -1.19888141	     -0.00433678	     -0.70999775	      4.85957924	      6.66531837	     -5.25123501	     -7.04450416	      4.86511506	     -7.37606929	      5.80642241	     34.98081603	     -7.61806867	    -15.61873480	    -51.27492989	     -2.46072047	    -13.18799871	      3.41905443	      6.68672244	      4.21316372	      1.30076366
      4.12500000	    -10.03505759	     -2.08878643	     -3.63064600	     -1.19370095	     -0.00491066	     -0.70960133	      4.63065334	      6.65927756	     -5.16606081	     -6.87922191	      5.04005283	     -7.22582864	      5.91016191	     35.36790803	     -7.60785438	    -15.95607798	    -49.69100745	     -2.18596894	    -13.21630620	      3.14712553	      6.80426804	      4.17202924	      1.59381172
      4.13000000	    -10.15868609	     -2.04025775	     -3.81593388	     -1.18848716	     -0.00540071	     -0.70922344	      4.33944799	      6.62063223	     -5.15944322	     -6.73817643	      5.23066795	     -6.91011313	      6.10077163	     35.62786495	     -7.57644556	    -16.34006611	    -48.02111824	     -1.85353398	    -13.15869058	      2.52195758	      6.85360185	      4.10545228	      1.88046379
      4.13500000	    -10.29736107	     -2.00073534	     -3.96568100	     -1.18324168	     -0.00597681	     -0.70895344	      4.06313120	      6.58252640	     -5.22342636	     -6.59264412	      5.44945576	     -6.57566167	      6.36846141	     35.88242251	     -7.52792320	    -16.72073741	    -46.30403261	     -1.42922728	    -12.97058037	      1.68724943	      6.91823248	      4.05593962	      2.13487221
      4.14000000	    -10.50585085	     -2.02144035	     -3.98587725	     -1.17796544	     -0.00671490	     -0.70879042	      3.83800181	      6.61862071	     -5.27665647	     -6.41509724	      5.59940098	     -6.51383884	      6.43576029	     36.21731560	     -7.45378576	    -16.92870821	    -44.51634503	     -1.15717100	    -12.76982395	      1.48935739	      7.07081810	      4.03549177	      2.19665005
      4.14500000	    -10.54702397	     -1.98488737	     -4.09352604	     -1.17264250	     -0.00725191	     -0.70868201	      3.46400247	      6.55180528	     -5.55180869	     -6.28085684	      5.85765493	     -5.94287492	      7.04146437	     36.29181568	     -7.35313944	    -17.33433726	    -42.68043672	     -0.52588138	    -12.31975891	     -0.02536852	      7.03792391	      3.98219518	      2.42310152
      4.15000000	    -10.81484270	     -2.00638379	     -4.17955863	     -1.16736632	     -0.00808601	     -0.70849077	      3.32811378	      6.59542975	     -5.55291808	     -6.15064880	      5.99738545	     -5.87989238	      7.09918277	     36.60253062	     -7.31556472	    -17.66166323	    -40.75350124	     -0.30848000	    -11.96437142	     -0.09483363	      7.24674824	      3.98124817	      2.56590312
      4.15500000	    -10.99274330	     -2.01762883	     -4.36189682	     -1.16207254	     -0.00883957	     -0.70826143	      3.10871543	      6.61282442	     -5.56239940	     -6.05085372	      6.20405149	     -5.57386569	      7.25102632	     36.74272516	     -7.32866460	    -18.17232344	    -38.76437891	      0.02155899	    -11.41236326	     -0.18045486	      7.34636956	      3.99906678	      2.87101621
      4.16000000	    -11.15701091	     -2.02767549	     -4.45696641	     -1.15670796	     -0.00960356	     -0.70813138	      2.86245783	      6.62083099	     -5.65577201	     -5.93410914	      6.40076706	     -5.29855376	      7.40383270	     36.83821680	     -7.26325379	    -18.60006833	    -36.70354644	      0.31541990	    -10.75482262	     -0.18999884	      7.44720460	      3.98937575	      3.03289464
      4.16500000	    -11.37752117	     -2.04049036	     -4.46825947	     -1.15134513	     -0.01045407	     -0.70813017	      2.68060245	      6.63165661	     -5.76356873	     -5.82413375	      6.55993670	     -5.17122839	      7.48458917	     36.98703909	     -7.12289789	    -18.91663425	    -34.59810576	      0.50119843	    -10.06075114	     -0.14049664	      7.61069665	      3.96977124	      3.09550600
      4.17000000	    -11.46892955	     -2.05901653	     -4.63438284	     -1.14592468	     -0.01116349	     -0.70796046	      2.36865805	      6.63480173	     -5.88084148	     -5.74265352	      6.77136875	     -4.70654912	      7.68823551	     36.92041632	     -7.11485150	    -19.55330009	    -32.47727228	      0.83530235	     -9.05158369	      0.15215157	      7.62677708	      3.98358999	      3.36196461
      4.17500000	    -11.55341592	     -2.05575422	     -4.68162542	     -1.14045347	     -0.01190553	     -0.70798284	      2.05861541	      6.59373993	     -6.19020123	     -5.65448089	      6.94035198	     -4.26687372	      8.46464953	     36.82259189	     -6.96803074	    -20.02588594	    -30.24017223	      0.72648698	     -8.25707184	      1.59803662	      7.64878260	      3.95195097	      3.49986244
      4.18000000	    -11.70141992	     -2.07913533	     -4.76945983	     -1.13495427	     -0.01273734	     -0.70793979	      1.80094240	      6.60183548	     -6.24623152	     -5.57585640	      7.11570159	     -4.00939765	      8.49876481	     36.80600232	     -6.88513988	    -20.58800383	    -28.12937383	      0.99257220	     -7.11089954	      1.94967629	      7.74399158	      3.95243436	      3.64280138
      4.18500000	    -11.76020013	     -2.05521579	     -4.86009381	     -1.12940165	     -0.01344238	     -0.70796966	      1.46009096	      6.53502011	     -6.33942016	     -5.52262271	      7.31687068	     -3.63349037	      8.56450519	     36.65376683	     -6.73709393	    -21.22372214	    -25.98932341	      1.16963257	     -5.93591496	      2.63051385	      7.74349597	      3.91224597	      3.81735152
      4.19000000	    -11.68665672	     -1.97710086	     -4.86657921	     -1.12377833	     -0.01398141	     -0.70809240	      0.97882113	      6.38508173	     -6.56040932	     -5.46489018	      7.52079695	     -3.20813546	      8.85020919	     36.30293970	     -6.44037242	    -21.74864233	    -23.67899880	      0.66984539	     -5.19728556	      5.36473789	      7.61421575	      3.78193565	      3.90718669
      4.19500000	    -11.81540454	     -1.90529370	     -4.99212849	     -1.11823307	     -0.01470716	     -0.70811939	      0.76325769	      6.26184338	     -6.56039892	     -5.49805045	      7.72966457	     -2.86993290	      8.91886109	     36.23304439	     -6.25076079	    -22.38998564	    -21.67340635	      0.86153441	     -3.98176022	      6.02419852	      7.69128041	      3.70198896	      4.12009480
      4.20000000	    -11.71873075	     -1.76309203	     -4.94802254	     -1.11256056	     -0.01513277	     -0.70832981	      0.28721671	      6.02699175	     -6.83401722	     -5.48779618	      7.91671836	     -2.42135227	      9.15153687	     35.88569172	     -5.84899895	    -22.93079921	    -19.54144830	      0.47524939	     -3.21495053	      8.46518781	      7.54815503	      3.49304545	      4.13533412
      4.20500000	    -11.80706470	     -1.59126358	     -5.06725550	     -1.10701140	     -0.01570648	     -0.70842979	      0.08003033	      5.77382067	     -6.82673945	     -5.59820436	      8.12820485	     -2.06872939	      9.21038438	     35.79941867	     -5.53132310	    -23.54194315	    -17.72537368	      0.62650659	     -2.24672061	      8.95711091	      7.58876953	      3.30704206	      4.35661184
      4.21000000	    -11.75856872	     -1.41915716	     -5.05931854	     -1.10144927	     -0.01615661	     -0.70865908	     -0.27332863	      5.49978949	     -7.00283509	     -5.71202489	      8.34781259	     -1.63690910	      9.27349216	     35.60937520	     -5.13337077	    -23.99543257	    -16.04206583	      0.70973645	     -1.34312504	      9.71556233	      7.47609399	      3.07878860	      4.42059150
      4.21500000	    -11.74857588	     -1.24868551	     -5.05673953	     -1.09589557	     -0.01666666	     -0.70890336	     -0.55306367	      5.22674328	     -7.14864285	     -5.88822149	      8.56715030	     -1.23859769	      9.35206428	     35.49492213	     -4.74230068	    -24.35176774	    -14.51366493	      0.72042113	     -0.63788949	     10.50418693	      7.40794960	      2.85530394	      4.48935783
      4.22000000	    -11.75266473	     -1.12786325	     -4.97791115	     -1.09030323	     -0.01725061	     -0.70922584	     -0.82734688	      5.01112399	     -7.34092267	     -6.05636347	      8.73199351	     -0.91601486	      9.44990422	     35.44130139	     -4.36546547	    -24.52302733	    -13.14704358	      0.61087746	     -0.09108572	     11.66007501	      7.35469593	      2.66728225	      4.43505501
      4.22500000	    -11.77595992	     -0.95138025	     -5.02695124	     -1.08473782	     -0.01784285	     -0.70945380	     -1.02310414	      4.73512085	     -7.33124399	     -6.32587877	      8.92192464	     -0.71045407	      9.43855831	     35.41295849	     -4.00547020	    -24.65347730	    -11.97974251	      0.66158447	      0.31731175	     11.79167802	      7.31793379	      2.44906562	      4.56519497
